<svg xmlns="http://www.w3.org/2000/svg" width="100" height="100" viewBox="-50 -50 100 100">
    <path fill-rule="evenodd" d="
        M -21 -30.6
        A 4.8 4.8 90 0 1 -14.2 -23.8
        L -38 0
        L -14.2 23.8
        A 4.8 4.8 90 1 1 -21 30.6
        L -48.2 3.4
        A 4.8 4.8 90 0 1 -48.2 -3.4
        Z
        M 21 -30.6
        A 4.8 4.8 90 1 0 14.2 -23.8
        L 38 0
        L 14.2 23.8
        A 4.8 4.8 90 1 0 21 30.6
        L 48.2 3.4
        A 4.8 4.8 90 0 0 48.2 -3.4
        Z
    "></path>
</svg>
