<svg xmlns="http://www.w3.org/2000/svg" width="100" height="100" viewBox="-50 -50 100 100">
    <path fill-rule="evenodd" d="
        M 10.65 -33.725
        A 15.975 15.975 90 1 1 31.95 -18.6588
        V -14.2
        A 17.75 17.75 90 0 1 14.2 3.55
        H -14.2
        A 7.1 7.1 90 0 0 -21.3 10.65
        V 18.6588
        A 15.9821 15.9821 90 1 1 -31.95 18.6588
        V -18.6588
        A 15.975 15.975 90 1 1 -21.3 -18.6588
        V -5.6232
        A 17.6932 17.6932 90 0 1 -14.2 -7.1
        H 14.2
        A 7.1 7.1 90 0 0 21.3 -14.2
        V -18.6588
        A 15.975 15.975 90 0 1 10.65 -33.725
        Z
        M 26.625 -39.05
        A 5.325 5.325 90 1 0 26.625 -28.4
        A 5.325 5.325 90 0 0 26.625 -39.05
        Z
        M -26.625 28.4
        A 5.325 5.325 90 1 0 -26.625 39.05
        A 5.325 5.325 90 0 0 -26.625 28.4
        Z
        M -31.95 -33.725
        A 5.325 5.325 90 1 1 -21.3 -33.725
        A 5.325 5.325 90 0 1 -31.95 -33.725
        Z
    "></path>
</svg>
