<svg xmlns="http://www.w3.org/2000/svg" width="100" height="100" viewBox="-50 -50 100 100">
    <path fill-rule="evenodd" d="
        M -21.3 -18.6588
        A 15.975 15.975 90 1 0 -31.95 -18.6588
        V -12.425
        A 15.975 15.975 90 0 0 -15.975 3.55
        H -5.325
        V 18.6588
        A 15.9821 15.9821 90 1 0 5.325 18.6588
        V 3.55
        H 15.975
        A 15.975 15.975 90 0 0 31.95 -12.425
        V -18.6588
        A 15.975 15.975 90 1 0 21.3 -18.6588
        V -12.425
        A 5.325 5.325 90 0 1 15.975 -7.1
        H -15.975
        A 5.325 5.325 90 0 1 -21.3 -12.425
        Z
        M -21.3 -33.725
        A 5.325 5.325 90 1 1 -31.95 -33.725
        A 5.325 5.325 90 0 1 -21.3 -33.725
        Z
        M 5.325 33.725
        A 5.325 5.325 90 1 1 -5.325 33.725
        A 5.325 5.325 90 0 1 5.325 33.725
        Z
        M 21.3 -33.725
        A 5.325 5.325 90 1 1 31.95 -33.725
        A 5.325 5.325 90 0 1 21.3 -33.725
        Z
    "></path>
</svg>
