<svg xmlns="http://www.w3.org/2000/svg" width="100" height="100" viewBox="-50 -50 100 100">
    <path fill-rule="evenodd" d="
        M -3.5402 -40.145
        A 40.8766 40.8766 90 0 1 3.5402 -40.145
        C 3.7634 -40.1264 4.2098 -39.9218 4.3896 -39.2398
        L 6.1814 -32.3888
        C 7.0928 -28.9168 9.5914 -26.3934 12.3628 -25.017
        C 13.4416 -24.4838 14.477 -23.8824 15.469 -23.219
        C 18.0544 -21.4954 21.483 -20.5964 24.955 -21.545
        L 31.7874 -23.4236
        C 32.4694 -23.6096 32.8724 -23.3244 32.9964 -23.1384
        C 34.3542 -21.2164 35.5384 -19.1642 36.549 -17.0066
        C 36.6358 -16.8144 36.6854 -16.3246 36.1832 -15.8286
        L 31.1302 -10.8314
        C 28.582 -8.3142 27.6458 -4.898 27.8442 -1.8042
        A 28.4456 28.4456 90 0 1 27.8442 1.8042
        C 27.6458 4.898 28.582 8.3142 31.1302 10.8314
        L 36.1832 15.8286
        C 36.6792 16.3246 36.6358 16.8144 36.549 17.0066
        A 40.2628 40.2628 90 0 1 32.9964 23.1446
        C 32.8724 23.3244 32.4632 23.6034 31.7874 23.4236
        L 24.9488 21.545
        C 21.483 20.5964 18.0544 21.4954 15.469 23.219
        C 14.477 23.8824 13.4416 24.4838 12.369 25.017
        C 9.5852 26.3934 7.0928 28.9106 6.1814 32.3888
        L 4.3896 39.2398
        C 4.2098 39.9218 3.7634 40.1264 3.5402 40.145
        A 41.0006 41.0006 90 0 1 -3.5402 40.145
        C -3.7634 40.1264 -4.2098 39.9156 -4.3896 39.2398
        L -6.1814 32.3888
        C -7.0928 28.9168 -9.5914 26.3934 -12.3628 25.017
        A 27.9124 27.9124 90 0 1 -15.469 23.219
        C -18.0544 21.4954 -21.483 20.5964 -24.955 21.545
        L -31.7874 23.4236
        C -32.4694 23.6096 -32.8724 23.3244 -32.9964 23.1384
        A 40.2504 40.2504 90 0 1 -36.549 17.0066
        C -36.6358 16.8144 -36.6854 16.3246 -36.1832 15.8286
        L -31.1302 10.8314
        C -28.582 8.3142 -27.6458 4.898 -27.8442 1.8042
        A 28.4394 28.4394 90 0 1 -27.8442 -1.8042
        C -27.6458 -4.898 -28.582 -8.3142 -31.1302 -10.8314
        L -36.1832 -15.8286
        C -36.6792 -16.3246 -36.6358 -16.8144 -36.549 -17.0066
        A 39.928 39.928 90 0 1 -32.9964 -23.1446
        C -32.8724 -23.3244 -32.4632 -23.6096 -31.7874 -23.4236
        L -24.9488 -21.545
        C -21.483 -20.5964 -18.0544 -21.4954 -15.469 -23.219
        C -14.477 -23.8824 -13.4416 -24.4838 -12.369 -25.017
        C -9.5852 -26.3934 -7.0928 -28.9106 -6.1814 -32.3888
        L -4.3896 -39.2398
        C -4.2098 -39.9218 -3.7634 -40.1264 -3.5402 -40.145
        Z
        M 0 -49.6
        C -1.4632 -49.6 -2.914 -49.538 -4.3462 -49.414
        C -8.9528 -49.011 -12.3442 -45.601 -13.3858 -41.5958
        L -15.1838 -34.7386
        C -15.2892 -34.3294 -15.6674 -33.759 -16.492 -33.3498
        A 37.1628 37.1628 90 0 0 -20.6336 -30.9566
        C -21.3962 -30.4482 -22.0782 -30.3986 -22.4936 -30.5164
        L -29.326 -32.3888
        C -33.3188 -33.4862 -37.9564 -32.2648 -40.61 -28.4828
        A 49.4574 49.4574 90 0 0 -44.9748 -20.9374
        C -46.9278 -16.7524 -45.663 -12.121 -42.7242 -9.2132
        L -37.6712 -4.216
        C -37.3612 -3.9184 -37.0636 -3.3046 -37.1256 -2.3932
        A 37.7208 37.7208 90 0 0 -37.1256 2.3932
        C -37.0636 3.3046 -37.3612 3.9184 -37.6712 4.216
        L -42.7242 9.2132
        C -45.663 12.121 -46.9278 16.7524 -44.9748 20.9374
        C -43.7348 23.591 -42.2716 26.1144 -40.61 28.489
        C -37.9564 32.2648 -33.3188 33.4862 -29.326 32.395
        L -22.4874 30.5164
        C -22.0782 30.3986 -21.3962 30.4482 -20.6336 30.9566
        C -19.313 31.8432 -17.9304 32.643 -16.492 33.3498
        C -15.6674 33.759 -15.2892 34.3294 -15.1776 34.7386
        L -13.3858 41.5958
        C -12.338 45.601 -8.9528 49.011 -4.3462 49.4078
        A 50.1828 50.1828 90 0 0 4.3462 49.4078
        C 8.9528 49.011 12.3442 45.601 13.3858 41.5958
        L 15.1838 34.7386
        C 15.2892 34.3294 15.6674 33.759 16.492 33.3498
        A 37.076 37.076 90 0 0 20.6336 30.9566
        C 21.3962 30.4482 22.0782 30.3986 22.4936 30.5164
        L 29.326 32.3888
        C 33.3188 33.4862 37.9564 32.2648 40.61 28.4828
        C 42.2716 26.1144 43.741 23.591 44.9748 20.9374
        C 46.9278 16.7524 45.663 12.121 42.718 9.2132
        L 37.6712 4.216
        C 37.3612 3.9184 37.0636 3.3046 37.1256 2.3932
        A 37.82 37.82 90 0 0 37.1256 -2.3932
        C 37.0636 -3.3046 37.3674 -3.9184 37.6712 -4.216
        L 42.718 -9.2132
        C 45.663 -12.121 46.9278 -16.7524 44.9748 -20.9374
        A 49.5504 49.5504 90 0 0 40.61 -28.489
        C 37.9564 -32.2648 33.3188 -33.4862 29.326 -32.395
        L 22.4874 -30.5164
        C 22.0782 -30.3986 21.3962 -30.4482 20.6336 -30.9566
        A 37.1442 37.1442 90 0 0 16.492 -33.3498
        C 15.6674 -33.759 15.2892 -34.3294 15.1776 -34.7386
        L 13.392 -41.602
        C 12.338 -45.601 8.9528 -49.011 4.3462 -49.4078
        A 50.1828 50.1828 90 0 0 0 -49.6
        Z
        M 9.3 0
        A 9.3 9.3 90 1 1 -9.3 0
        A 9.3 9.3 90 0 1 9.3 0
        Z
        M 18.6 0
        A 18.6 18.6 90 1 1 -18.6 0
        A 18.6 18.6 90 0 1 18.6 0
        Z
    "></path>
</svg>
