<svg xmlns="http://www.w3.org/2000/svg" width="100" height="100" viewBox="-50 -50 100 100">
    <path fill-rule="evenodd" d="
        M -5.6787 -33.9963
        L 10.8537 -50.5287
        A 1.725 1.725 90 0 1 13.8 -49.3074
        V -16.2426
        A 1.725 1.725 90 0 1 10.8537 -15.0213
        L -5.6787 -31.5537
        A 1.725 1.725 90 0 1 -5.6787 -33.9963
        Z
        M -29.325 -37.95
        A 5.175 5.175 90 1 0 -29.325 -27.6
        A 5.175 5.175 90 0 0 -29.325 -37.95
        Z
        M -44.85 -32.775
        A 15.525 15.525 90 1 1 -24.15 -18.1332
        V 18.1332
        A 15.5319 15.5319 90 1 1 -34.5 18.1332
        V -18.1332
        A 15.525 15.525 90 0 1 -44.85 -32.775
        Z
        M 20.7 -37.95
        H 13.8
        V -27.6
        H 20.7
        A 6.9 6.9 90 0 1 27.6 -20.7
        V 18.1332
        A 15.5319 15.5319 90 1 0 37.95 18.1332
        V -20.7
        A 17.25 17.25 90 0 0 20.7 -37.95
        Z
        M 27.6 32.775
        A 5.175 5.175 90 1 1 37.95 32.775
        A 5.175 5.175 90 0 1 27.6 32.775
        Z
        M -29.325 27.6
        A 5.175 5.175 90 1 0 -29.325 37.95
        A 5.175 5.175 90 0 0 -29.325 27.6
        Z"></path>
</svg>
