<svg xmlns="http://www.w3.org/2000/svg" width="100" height="100" viewBox="-50 -50 100 100">
    <path fill-rule="evenodd" d="
        M -37.8 -34.6
        A 15.8 15.8 90 0 1 -22.1 -50.4
        H 33.1
        A 4.7 4.7 90 0 1 37.8 -45.7
        V 33.1
        A 4.7 4.7 90 0 1 33.1 37.8
        H 17.3
        A 4.7 4.7 90 1 1 17.3 28.4
        H 28.4
        V 15.8
        H -22
        A 6.3 6.3 90 0 0 -26.5 26.5
        A 4.7 4.7 90 0 1 -33.3 33.1
        A 15.7 15.7 90 0 1 -37.8 22.1
        Z
        M 28.3 -40.9
        V 6.3
        H -22.1
        C -24.3 6.3 -26.4 6.8 -28.4 7.6
        V -34.6
        A 6.3 6.3 90 0 1 -22.1 -40.9
        Z
        M -18.9 26.8
        V 47.3
        A 1.6 1.6 90 0 0 -16.4 48.5
        L -7.2 41.7
        A 1.6 1.6 90 0 1 -5.4 41.7
        L 3.8 48.5
        A 1.6 1.6 90 0 0 6.3 47.3
        V 26.8
        A 1.6 1.6 90 0 0 4.7 25.2
        H -17.3
        A 1.6 1.6 90 0 0 -18.9 26.8
        Z
    "></path>
</svg>
