<svg xmlns="http://www.w3.org/2000/svg" width="300" height="100" viewBox="-50 -50 300 100">
    <rect x="-50" y="-50" width="100%" height="100%"/>
    <path fill-rule="evenodd" d="
        M 36 -20.4
        L 36 20.4
        L 0 42
        L -36 20.4
        L -36 -20.4
        L 0 -42
        Z
        M 3 -47.4
        A 6 6 90 0 0 -3 -47.4
        L -39 -25.8
        A 6 6 90 0 0 -42 -20.4
        L -42 20.4
        A 6 6 90 0 0 -39 25.8
        L -3 47.4
        A 6 6 90 0 0 3 47.4
        L 39 25.8
        A 6 6 90 0 0 42 20.4
        L 42 -20.4
        A 6 6 90 0 0 39 -25.8
        Z
    " stroke="#BDBDBD" fill="#BDBDBD"></path>
    <path transform="scale(0.5 0.5)" d="
        M 30.9492 5.9264
        A 8.25 8.25 0 1 0 30.9492 -5.7328
        L 14.0756 -5.7328
        L 26.0072 -17.664
        A 8.25 8.25 0 1 0 17.7628 -25.9084
        L 5.8312 -13.9768
        L 5.8312 -30.8508
        A 8.25 8.25 0 1 0 -5.8284 -30.8508
        L -5.8284 -13.9768
        L -17.7596 -25.9088
        A 8.25 8.25 0 1 0 -26.0044 -17.664
        L -14.0724 -5.7328
        L -30.9464 -5.7328
        A 8.25 8.25 0 1 0 -30.9464 5.9272
        L -14.0732 5.9272
        L -26.004 17.858
        A 8.25 8.25 0 1 0 -17.7596 26.1024
        L -5.8284 14.1708
        L -5.8284 31.0444
        A 8.25 8.25 0 1 0 5.8316 31.044
        L 5.8316 14.1708
        L 17.7628 26.1024
        A 8.25 8.25 0 1 0 26.0072 17.858
        L 14.0752 5.9264
        Z
    " stroke="#BDBDBD" fill="#BDBDBD" ></path>
    <text x="45" y="7" fill="#BDBDBD" stroke-width="0.1" font-size="1.7em" >SVG mastery</text>
</svg>
