<svg xmlns="http://www.w3.org/2000/svg" width="300" height="100" viewBox="-50 -50 300 100">
    <rect x="-50" y="-50" width="100%" height="100%"/>
    <path fill-rule="evenodd" d="
        M 36 -20.4
        L 36 20.4
        L 0 42
        L -36 20.4
        L -36 -20.4
        L 0 -42
        Z
        M 3 -47.4
        A 6 6 90 0 0 -3 -47.4
        L -39 -25.8
        A 6 6 90 0 0 -42 -20.4
        L -42 20.4
        A 6 6 90 0 0 -39 25.8
        L -3 47.4
        A 6 6 90 0 0 3 47.4
        L 39 25.8
        A 6 6 90 0 0 42 20.4
        L 42 -20.4
        A 6 6 90 0 0 39 -25.8
        Z
    " stroke="#BDBDBD" fill="#BDBDBD"></path>
    <path fill-rule="evenodd" transform="translate(0 3) scale(0.5 0.5)" d="
        M -37.8 -34.6
        A 15.8 15.8 90 0 1 -22.1 -50.4
        H 33.1
        A 4.7 4.7 90 0 1 37.8 -45.7
        V 33.1
        A 4.7 4.7 90 0 1 33.1 37.8
        H 17.3
        A 4.7 4.7 90 1 1 17.3 28.4
        H 28.4
        V 15.8
        H -22
        A 6.3 6.3 90 0 0 -26.5 26.5
        A 4.7 4.7 90 0 1 -33.3 33.1
        A 15.7 15.7 90 0 1 -37.8 22.1
        Z
        M 28.3 -40.9
        V 6.3
        H -22.1
        C -24.3 6.3 -26.4 6.8 -28.4 7.6
        V -34.6
        A 6.3 6.3 90 0 1 -22.1 -40.9
        Z
        M -18.9 26.8
        V 47.3
        A 1.6 1.6 90 0 0 -16.4 48.5
        L -7.2 41.7
        A 1.6 1.6 90 0 1 -5.4 41.7
        L 3.8 48.5
        A 1.6 1.6 90 0 0 6.3 47.3
        V 26.8
        A 1.6 1.6 90 0 0 4.7 25.2
        H -17.3
        A 1.6 1.6 90 0 0 -18.9 26.8
        Z
    " stroke="#BDBDBD" stroke-width="2"></path>
    <text x="45" y="-2" fill="#BDBDBD" stroke-width="0.1" font-size="1.7em" >Show off</text>
    <text x="50" y="15" fill="#888888" stroke-width="0.1" font-size="0.8em" >66 public repositories</text>
</svg>
