<svg xmlns="http://www.w3.org/2000/svg" width="100" height="100" viewBox="-50 -50 100 100">
    <path d="
        M -18.4 -38.1
        V -23.7
        C -18.1 -20 -15.4 -17.3 -11.9 -15.2
        C -14.6 -14.2 -19.1 -9.8 -19.3 -6.4
        C -19.8 -6.8 -21 -6.9 -21.5 -6.1
        C -24.4 -7.2 -26.3 -10 -28.4 -11.4
        C -36.2 -15 -41.5 -7.2 -37.3 -1.4
        L -39.1 -1.3
        L -44.1 3.7
        L -44.4 11
        L -45.5 12.8
        L -45.2 14
        L -43.9 23.5
        L -42 15.4
        L -41.1 13
        L -39.3 12.3
        L -34.4 6.4
        L -33.3 1.3
        C -28 1.2 -26.4 -1.5 -22.6 -2
        C -21.7 -1 -20 -0.8 -18.9 -1.6
        C -16.8 4 -10.6 7 -4.6 7.5
        C -8 12 -7.7 16.8 -2.5 19.2
        L -3.7 20.5
        L -3.4 31.8
        L -1.8 36.2
        L -1.6 38
        L -0.2 48.7
        L 1.4 38.1
        L 1.9 35.7
        L 3.3 32.3
        L 3.9 20.5
        L 2.8 19.3
        L 4.5 18.1
        L 6.8 26.4
        C 6.2 29.3 8.8 30.9 9.9 29.4
        L 11 28.4
        L 14.3 20.5
        L 16 21.8
        L 16 25.6
        L 16.6 26.4
        L 17.9 25.6
        L 20 17.7
        L 19.3 15.8
        L 15.9 13.8
        L 13.1 15.2
        C 12.3 15.6 11.9 16.6 12.3 17.5
        L 9.4 23.7
        L 8.9 17
        L 18 10.6
        L 20.3 18.5
        C 19.9 21.7 22.1 22.8 23.5 21.7
        L 24.2 20.5
        L 27.8 12.6
        L 29.4 13.8
        L 29.6 17.5
        L 30.3 18.4
        L 31.7 17.5
        L 33.3 10.3
        L 32.9 8.1
        L 29.4 6
        L 26.1 7.6
        C 25.5 8.1 25.5 8.9 25.7 9.7
        L 22.7 15.7
        L 22.4 8.8
        C 23.6 7.4 23.9 5.2 23 3
        C 23.5 1.5 23.3 -0.1 22.9 -1.3
        C 27.3 -1.2 29.1 1.5 33 1
        L 33.6 5.4
        L 39.1 12.4
        L 40.5 12.6
        L 41.8 15.4
        L 43.4 23.4
        L 44.8 14.1
        L 45.4 12.5
        L 44.3 11
        L 44.2 4.7
        L 38.8 -1.5
        L 37.2 -1.5
        C 41.4 -7.9 35.8 -14.5 29 -11.9
        C 25.5 -10.1 24.6 -6.3 19.3 -6.5
        C 18.6 -10.6 14.7 -13.7 12 -15.1
        C 16.2 -17.2 18.6 -20.4 18.5 -24.2
        L 18.7 -38.5
        C 17.3 -53.6 -18.4 -52.9 -18.4 -38.1
        Z
    "></path>
</svg>
