<svg xmlns="http://www.w3.org/2000/svg" width="100" height="100" viewBox="-50 -50 100 100">
    <path fill-rule="evenodd" d="
        M 36 -20.4
        L 36 20.4
        L 0 42
        L -36 20.4
        L -36 -20.4
        L 0 -42
        Z
        M 3 -47.4
        A 6 6 90 0 0 -3 -47.4
        L -39 -25.8
        A 6 6 90 0 0 -42 -20.4
        L -42 20.4
        A 6 6 90 0 0 -39 25.8
        L -3 47.4
        A 6 6 90 0 0 3 47.4
        L 39 25.8
        A 6 6 90 0 0 42 20.4
        L 42 -20.4
        A 6 6 90 0 0 39 -25.8
        Z
    "></path>
</svg>
