<svg xmlns="http://www.w3.org/2000/svg" width="100" height="100" viewBox="-50 -50 100 100">
    <path d="
        M -23.7 -48.7
        A 11.7 11.7 90 0 1 -4.8 -45.3
        L -0.7 -36.4
        A 20.6 20.6 90 0 0 13.3 -25
        L 29.7 -21.1
        C 38.6 -19 41.8 -7.9 35.3 -1.4
        L 20.5 13.4
        L 45.4 38.3
        A 5 5 90 1 1 38.3 45.4
        L 13.4 20.5
        L -1.4 35.3
        C -7.9 41.8 -19 38.7 -21.1 29.7
        L -25 13.3
        A 20.6 20.6 90 0 0 -36.4 -0.7
        L -45.3 -4.8
        A 11.7 11.7 90 0 1 -48.7 -23.7
        L -23.7 -48.7
        Z
        M -13.9 -41.1
        A 1.7 1.7 90 0 0 -16.6 -41.6
        L -41.6 -16.6
        A 1.7 1.7 90 0 0 -41.1 -13.9
        L -32.2 -9.8
        A 30.7 30.7 90 0 1 -15.2 10.9
        L -11.3 27.3
        A 1.7 1.7 90 0 0 -8.5 28.1
        L 28.1 -8.5
        A 1.7 1.7 90 0 0 27.3 -11.3
        L 10.9 -15.2
        A 30.7 30.7 90 0 1 -9.9 -32.2
        L -13.9 -41.1
        Z
    "></path>
</svg>
