<svg xmlns="http://www.w3.org/2000/svg" width="100" height="100" viewBox="-50 -50 100 100">
    <path d="
        M 0 -51.9
        A 5 5 90 0 1 4.5 -49.1
        L 17.1 -23.6
        L 45.3 -19.5
        A 5 5 90 0 1 48.1 -10.9
        L 27.7 9
        L 32.5 37.1
        A 5 5 90 0 1 25.2 42.4
        L 0 29.1
        L -25.2 42.4
        A 5 5 90 0 1 -32.5 37.1
        L -27.7 9
        L -48.1 -10.9
        A 5 5 90 0 1 -45.3 -19.5
        L -17.1 -23.6
        L -4.5 -49.1
        A 5 5 90 0 1 0 -51.9
        Z
    "></path>
</svg>
