<svg xmlns="http://www.w3.org/2000/svg" width="100" height="100" viewBox="-50 -50 100 100">
    <path d="
        M -39.8223 -0.4284
        C -37.2267 -4.3407 -31.9977 -11.4534 -24.9165 -17.5455
        C -17.7975 -23.6754 -9.2799 -28.35 0 -28.35
        C 9.2799 -28.35 17.7912 -23.6754 24.9165 -17.5455
        C 31.9977 -11.4534 37.2267 -4.3407 39.8223 -0.4284
        A 0.7497 0.7497 90 0 1 39.8223 0.4284
        C 37.2267 4.3407 31.9977 11.4534 24.9165 17.5455
        C 17.7975 23.6754 9.2799 28.35 0 28.35
        C -9.2799 28.35 -17.7912 23.6754 -24.9165 17.5455
        C -32.004 11.4534 -37.233 4.347 -39.8223 0.4284
        A 0.7497 0.7497 90 0 1 -39.8223 -0.4284
        Z
        M 0 -37.8
        C -12.4803 -37.8 -23.121 -31.5504 -31.0779 -24.7086
        C -39.0789 -17.8353 -44.856 -9.9351 -47.691 -5.67
        A 10.1997 10.1997 90 0 0 -47.691 5.6574
        C -44.856 9.9288 -39.0789 17.829 -31.0779 24.7086
        C -23.1273 31.5504 -12.4803 37.8 0 37.8
        C 12.4803 37.8 23.121 31.5504 31.0779 24.7086
        C 39.0789 17.8353 44.856 9.9351 47.691 5.6637
        A 10.1997 10.1997 90 0 0 47.691 -5.6637
        C 44.856 -9.9351 39.0789 -17.8353 31.0779 -24.7086
        C 23.1273 -31.5504 12.4803 -37.8 0 -37.8
        Z
        M 0 12.6
        A 12.6 12.6 90 1 0 0 -12.6
        A 12.6 12.6 90 0 0 0 12.6
        Z
    "></path>
</svg>
